<?xml version="1.0" standalone="no"?>
<!DOCTYPE svg PUBLIC "-//W3C//DTD SVG 20010904//EN"
 "http://www.w3.org/TR/2001/REC-SVG-20010904/DTD/svg10.dtd">
<svg version="1.0" xmlns="http://www.w3.org/2000/svg"
 width="100.000000pt" height="100.000000pt" viewBox="0 0 100.000000 100.000000"
 preserveAspectRatio="xMidYMid meet">
<metadata>
Created by potrace 1.10, written by Peter Selinger 2001-2011
</metadata>
<g transform="translate(0.000000,100.000000) scale(0.100000,-0.100000)"
fill="white" stroke="none">
<path d="M395 878 c-88 -5 -163 -14 -181 -22 -36 -16 -65 -70 -72 -133 -5 -50
9 -56 51 -23 14 11 30 20 37 20 18 0 2 -59 -26 -95 -47 -62 -57 -132 -47 -330
l8 -180 328 0 c208 0 331 4 335 10 4 6 5 91 2 190 -6 202 -11 222 -92 318
l-40 48 11 60 c14 71 7 113 -22 134 -24 17 -56 17 -292 3z m275 -43 c9 -11 10
-29 1 -78 -16 -90 -15 -91 31 -144 77 -89 88 -127 88 -297 l0 -150 -30 29
c-16 16 -33 25 -37 21 -4 -4 7 -20 26 -35 l34 -28 -96 1 c-53 1 -97 2 -97 3 0
2 24 19 54 38 49 33 54 40 60 82 8 59 6 219 -4 258 -11 48 -24 4 -16 -57 4
-28 4 -92 0 -142 -6 -92 -7 -92 -43 -116 -62 -43 -61 -42 -61 -21 0 13 14 30
35 43 19 13 35 26 35 31 0 13 -27 8 -40 -8 -16 -19 -30 -19 -30 0 0 9 16 23
35 32 35 17 51 42 18 28 -40 -16 -53 -17 -53 -3 0 8 16 22 35 31 19 9 35 21
35 27 0 14 -12 12 -38 -6 -13 -9 -25 -14 -27 -12 -11 10 9 47 31 57 14 6 22
16 19 21 -4 7 -12 7 -25 0 -23 -13 -30 -13 -30 0 0 5 14 16 30 25 30 16 43 42
15 31 -8 -3 -21 -9 -29 -12 -22 -8 -1 73 29 116 17 23 21 38 15 44 -16 16 -42
-5 -65 -50 -19 -37 -30 -167 -34 -396 l-1 -48 -67 1 c-38 0 -62 3 -55 6 6 2
12 11 12 20 0 11 -6 10 -29 -6 -34 -25 -70 -29 -52 -7 8 9 9 16 2 20 -6 4 -16
-2 -23 -14 -7 -11 -23 -20 -37 -20 -23 0 -24 1 -6 20 10 11 15 23 11 28 -4 4
-17 -5 -28 -21 -11 -15 -27 -27 -36 -27 -12 0 -13 3 -4 12 7 7 12 19 12 27 0
11 -3 11 -19 -3 -18 -16 -19 -13 -26 122 -8 160 -2 210 29 272 23 45 23 45 72
42 80 -5 214 8 214 21 0 9 -35 11 -124 9 -123 -4 -124 -3 -119 18 4 13 11 19
20 16 8 -3 32 4 53 16 l38 22 52 -24 52 -24 31 38 c17 21 51 47 76 58 40 17
43 20 29 34 -20 20 -61 4 -110 -44 l-38 -36 -35 17 c-45 21 -69 21 -106 0 -27
-16 -29 -16 -53 6 -22 21 -26 21 -59 7 l-36 -15 10 27 c15 39 39 62 65 62 17
0 22 -4 18 -15 -8 -19 5 -20 20 -1 6 8 22 17 36 21 25 8 25 8 6 -14 -29 -32
-10 -39 22 -8 30 29 64 39 43 13 -19 -23 4 -28 24 -6 10 11 29 20 43 20 24 0
25 0 7 -20 -10 -11 -15 -23 -11 -27 4 -4 18 7 32 25 24 30 29 32 94 32 47 0
71 -4 80 -15z"/>
<path d="M284 483 c-28 -4 -32 -9 -38 -41 -8 -47 -8 -160 0 -189 6 -22 11 -23
110 -23 75 0 106 4 108 13 3 6 7 65 10 130 l5 117 -82 -2 c-45 0 -96 -3 -113
-5z m59 -35 l-6 -23 26 24 c28 25 49 23 28 -3 -7 -8 -8 -17 -3 -20 6 -3 17 5
26 19 9 14 23 25 31 25 21 0 19 -13 -5 -28 -12 -7 -18 -17 -15 -22 4 -6 11 -8
16 -5 14 9 11 -19 -3 -33 -10 -10 -10 -14 0 -21 9 -5 12 -25 10 -57 l-3 -49
-86 -3 c-83 -3 -87 -2 -93 20 -7 29 -7 103 0 150 6 34 10 37 43 41 20 2 37 4
38 5 0 1 -1 -8 -4 -20z"/>
</g>
</svg>
