<?xml version="1.0" standalone="no"?>
<!DOCTYPE svg PUBLIC "-//W3C//DTD SVG 20010904//EN"
 "http://www.w3.org/TR/2001/REC-SVG-20010904/DTD/svg10.dtd">
<svg version="1.0" xmlns="http://www.w3.org/2000/svg"
 width="100.000000pt" height="100.000000pt" viewBox="0 0 100.000000 100.000000"
 preserveAspectRatio="xMidYMid meet">
<metadata>
Created by potrace 1.10, written by Peter Selinger 2001-2011
</metadata>
<g transform="translate(0.000000,100.000000) scale(0.100000,-0.100000)"
fill="white" stroke="none">
<path d="M646 912 c-7 -11 -86 -733 -86 -782 0 -77 89 -112 138 -55 24 29 25
32 18 141 l-7 112 37 68 c32 57 38 79 42 143 5 90 -11 208 -37 266 -19 42 -77
115 -91 115 -5 0 -11 -4 -14 -8z m74 -139 c11 -31 24 -91 27 -135 6 -75 5 -78
-16 -78 -11 0 -21 -4 -21 -10 0 -5 9 -10 20 -10 20 0 26 -22 14 -54 -5 -14
-10 -13 -36 5 -42 30 -48 14 -7 -20 19 -16 30 -33 26 -37 -4 -5 -19 5 -32 21
-13 17 -27 27 -31 22 -4 -4 4 -20 19 -35 l27 -28 -20 -39 c-18 -36 -20 -52
-14 -156 7 -111 6 -117 -14 -128 -31 -17 -37 -13 -17 9 23 25 12 39 -13 17
-25 -23 -32 -21 -32 6 0 16 9 28 25 35 14 6 25 16 25 22 0 13 -17 13 -25 0
-11 -18 -25 -10 -25 14 0 17 7 26 25 30 14 4 25 11 25 17 0 6 -9 9 -20 6 -15
-4 -20 0 -20 13 0 10 9 22 20 25 11 3 20 11 20 16 0 6 -9 7 -22 4 -17 -6 -20
-4 -15 10 4 9 7 21 7 26 0 5 7 9 15 9 8 0 15 5 15 10 0 6 -7 10 -16 10 -12 0
-15 6 -11 23 3 12 15 120 28 239 25 237 30 246 69 141z"/>
<path d="M385 899 c-16 -5 -58 -11 -93 -13 -34 -2 -65 -6 -68 -9 -12 -12 -33
-134 -34 -195 0 -68 8 -89 51 -140 35 -40 36 -72 11 -280 -20 -161 -15 -190
35 -211 36 -15 74 -3 97 31 13 19 16 55 16 223 l0 201 30 22 c50 38 62 65 61
139 0 37 -8 107 -17 155 -18 96 -20 98 -89 77z m54 -98 c6 -39 11 -100 11
-137 0 -65 -1 -67 -42 -105 l-43 -39 -5 -212 c-4 -157 -8 -212 -18 -216 -7 -2
-10 2 -6 12 3 9 2 16 -4 16 -5 0 -12 -10 -16 -22 -5 -22 -6 -22 -23 -6 -16 17
-16 19 7 43 13 14 20 28 16 32 -4 5 -13 0 -20 -10 -19 -24 -23 -21 -18 13 2
16 7 30 11 30 4 0 16 7 27 16 19 15 18 15 -3 11 -30 -7 -32 29 -3 38 27 8 26
29 -1 22 -15 -4 -19 -2 -15 10 3 8 6 19 6 24 0 5 7 9 15 9 8 0 15 5 15 10 0 6
-6 10 -12 10 -10 0 -13 25 -13 94 l0 93 -39 43 -39 43 6 86 c6 97 19 141 42
141 12 0 15 -18 15 -105 0 -87 -3 -105 -15 -105 -8 0 -15 -4 -15 -10 0 -11 55
-13 123 -4 45 6 57 24 16 24 -18 0 -19 8 -19 104 0 108 0 107 41 115 3 0 11
-30 18 -68z m-79 -56 l0 -105 -25 0 -25 0 0 105 0 105 25 0 25 0 0 -105z"/>
</g>
</svg>
